<svg xmlns="http://www.w3.org/2000/svg" xmlns:svg="http://www.w3.org/2000/svg" id="svg307" width="57" height="10.9mm" version="1.1" viewBox="0 0 15.081 10.9"><metadata id="metadata304"/><g id="layer1"><path id="path1469" d="M 6.8034958,4.7607326 4.5639089,6.490362" style="fill:none;stroke:#ff6b58;stroke-width:.792503;stroke-linecap:butt;stroke-linejoin:miter;stroke-miterlimit:4;stroke-dasharray:none;stroke-opacity:1"/><path style="fill:#f8b660;fill-opacity:1;fill-rule:nonzero;stroke:none;stroke-width:2.34631;stroke-miterlimit:4;stroke-dasharray:none" id="path302-7-6" d="m 4.2011719,5.6777344 c -0.5659587,0 -1.0273438,0.4645374 -1.0273438,1.03125 0,0.5679981 0.4613127,1.0332031 1.0273438,1.0332031 0.56603,0 1.0292969,-0.4649214 1.0292969,-1.0332031 0,-0.5669969 -0.4633393,-1.03125 -1.0292969,-1.03125 z m 0,0.6621094 c 0.2042438,0 0.3691406,0.1640376 0.3691406,0.3691406 0,0.2050986 -0.1654429,0.3710937 -0.3691406,0.3710937 -0.203517,1e-7 -0.3671875,-0.1654927 -0.3671875,-0.3710937 0,-0.2056053 0.1631241,-0.3691406 0.3671875,-0.3691406 z" transform="matrix(0.96764737,0,0,0.96764737,0.06661679,0.35562883)"/><path id="path844" d="M 8.5226452,6.8456588 A 3.3593161,3.3593161 0 0 1 5.4220352,10.194998 3.3593161,3.3593161 0 0 1 1.8438597,7.3615343 3.3593161,3.3593161 0 0 1 4.3933482,3.5757759" style="fill:none;fill-opacity:1;stroke:#d20076;stroke-width:1.27149;stroke-miterlimit:4;stroke-dasharray:none;stroke-opacity:1"/><path style="fill:none;fill-opacity:1;stroke:#ff4373;stroke-width:1.27149;stroke-miterlimit:4;stroke-dasharray:none;stroke-opacity:1" id="path853" d="m -6.5888574,-4.0870924 a 3.3593161,3.3593161 0 0 1 -3.10061,3.34933962 3.3593161,3.3593161 0 0 1 -3.5781756,-2.83346402 3.3593161,3.3593161 0 0 1 2.549489,-3.7857585" transform="scale(-1)"/><path id="path1422" d="M 4.7362992,1.6154177 10.902263,10.03367" style="fill:none;stroke:#f8b660;stroke-width:1.27149;stroke-linecap:butt;stroke-linejoin:miter;stroke-miterlimit:4;stroke-dasharray:none;stroke-opacity:1"/></g></svg>